<svg xmlns="http://www.w3.org/2000/svg" xmlns:xlink="http://www.w3.org/1999/xlink" contentStyleType="text/css" data-diagram-type="CLASS" height="893px" preserveAspectRatio="none" style="width:1072px;height:893px;background:#FFFFFF;" version="1.1" viewBox="0 0 1072 893" width="1072px" zoomAndPan="magnify"><title>&#26680;&#24515;&#23454;&#29616;&#31867;&#22270;&#65288;&#30465;&#30053;&#37325;&#22797; CRUD &#26041;&#27861;&#65289;</title><defs/><g><text fill="#000000" font-family="Microsoft YaHei" font-size="14" font-weight="bold" lengthAdjust="spacing" textLength="245.4922" x="409.5039" y="24.8135">&#26680;&#24515;&#23454;&#29616;&#31867;&#22270;&#65288;&#30465;&#30053;&#37325;&#22797; CRUD &#26041;&#27861;&#65289;</text><!--class HttpHandler--><g class="entity" data-entity="HttpHandler" data-source-line="5" data-uid="ent0002" id="entity_HttpHandler"><rect fill="#F1F1F1" height="66.4775" rx="2.5" ry="2.5" style="stroke:#181818;stroke-width:0.5;" width="279.1416" x="403.5" y="51.4775"/><ellipse cx="497.1387" cy="67.4775" fill="#B4A7E5" rx="11" ry="11" style="stroke:#181818;stroke-width:1;"/><path d="M493.7324,61.7588 L493.7324,61.3525 L500.0449,61.3525 L500.0449,61.7588 L497.5137,61.7588 Q497.5137,61.7588 497.6621,61.8916 Q497.8105,62.0244 497.8105,62.29 L497.8105,71.7744 Q497.8105,72.04 498.0293,72.1729 Q498.248,72.3057 498.248,72.3057 L500.0449,72.3057 L500.0449,72.7119 L493.7324,72.7119 L493.7324,72.3057 L495.2637,72.3057 Q495.5918,72.3057 495.7246,72.1729 Q495.8574,72.04 495.8574,71.7744 L495.8574,62.29 Q495.8574,62.0244 495.7246,61.8916 Q495.5918,61.7588 495.2637,61.7588 L493.7324,61.7588 Z " fill="#000000"/><text fill="#000000" font-family="Microsoft YaHei" font-size="14" font-style="italic" lengthAdjust="spacing" textLength="83.3643" x="517.6387" y="73.0522">HttpHandler</text><line style="stroke:#181818;stroke-width:0.5;" x1="404.5" x2="681.6416" y1="83.4775" y2="83.4775"/><line style="stroke:#181818;stroke-width:0.5;" x1="404.5" x2="681.6416" y1="91.4775" y2="91.4775"/><text fill="#000000" font-family="Microsoft YaHei" font-size="14" lengthAdjust="spacing" textLength="267.1416" x="409.5" y="110.291">+handle(exchange: HttpExchange): void</text></g><!--class Main--><g class="entity" data-entity="Main" data-source-line="8" data-uid="ent0003" id="entity_Main"><rect fill="#F1F1F1" height="66.4775" rx="2.5" ry="2.5" style="stroke:#181818;stroke-width:0.5;" width="186.7197" x="700.5" y="51.4775"/><ellipse cx="772.7251" cy="67.4775" fill="#ADD1B2" rx="11" ry="11" style="stroke:#181818;stroke-width:1;"/><path d="M771.3032,72.8369 Q769.4438,72.8369 768.3501,71.4463 Q767.2563,70.0557 767.2563,67.0713 Q767.2563,64.54 768.4204,62.8838 Q769.5845,61.2275 771.5688,61.2275 Q773.0376,61.2275 773.5063,61.3525 Q773.9751,61.5557 773.9751,61.5557 Q773.9751,61.5557 773.9751,61.4854 Q773.9751,61.415 774.5845,60.4932 L775.6313,64.1494 L774.3032,64.5557 Q773.8345,63.0088 773.1704,62.3447 Q772.5063,61.6807 771.4438,61.6807 Q771.0532,61.6807 770.2876,63.2119 Q769.522,64.7432 769.522,66.9932 Q769.522,69.4619 770.186,70.8525 Q770.8501,72.2432 771.3813,72.2432 Q772.4438,72.2432 773.2017,71.4775 Q773.9595,70.7119 774.3032,69.0557 L775.6313,69.6494 Q775.3032,71.0557 774.4048,71.9463 Q773.5063,72.8369 771.3032,72.8369 Z " fill="#000000"/><text fill="#000000" font-family="Microsoft YaHei" font-size="14" lengthAdjust="spacing" textLength="33.7695" x="793.2251" y="73.0522">Main</text><line style="stroke:#181818;stroke-width:0.5;" x1="701.5" x2="886.2197" y1="83.4775" y2="83.4775"/><line style="stroke:#181818;stroke-width:0.5;" x1="701.5" x2="886.2197" y1="91.4775" y2="91.4775"/><text fill="#000000" font-family="Microsoft YaHei" font-size="14" lengthAdjust="spacing" text-decoration="underline" textLength="174.7197" x="706.5" y="110.291">+main(args: String[]): void</text></g><!--class PageHandler--><g class="entity" data-entity="PageHandler" data-source-line="11" data-uid="ent0004" id="entity_PageHandler"><rect fill="#F1F1F1" height="48" rx="2.5" ry="2.5" style="stroke:#181818;stroke-width:0.5;" width="118.3652" x="484" y="201.9775"/><ellipse cx="499" cy="217.9775" fill="#ADD1B2" rx="11" ry="11" style="stroke:#181818;stroke-width:1;"/><path d="M497.5781,223.3369 Q495.7188,223.3369 494.625,221.9463 Q493.5313,220.5557 493.5313,217.5713 Q493.5313,215.04 494.6953,213.3838 Q495.8594,211.7275 497.8438,211.7275 Q499.3125,211.7275 499.7813,211.8525 Q500.25,212.0557 500.25,212.0557 Q500.25,212.0557 500.25,211.9854 Q500.25,211.915 500.8594,210.9932 L501.9063,214.6494 L500.5781,215.0557 Q500.1094,213.5088 499.4453,212.8447 Q498.7813,212.1807 497.7188,212.1807 Q497.3281,212.1807 496.5625,213.7119 Q495.7969,215.2432 495.7969,217.4932 Q495.7969,219.9619 496.4609,221.3525 Q497.125,222.7432 497.6563,222.7432 Q498.7188,222.7432 499.4766,221.9775 Q500.2344,221.2119 500.5781,219.5557 L501.9063,220.1494 Q501.5781,221.5557 500.6797,222.4463 Q499.7813,223.3369 497.5781,223.3369 Z " fill="#000000"/><text fill="#000000" font-family="Microsoft YaHei" font-size="14" lengthAdjust="spacing" textLength="86.3652" x="513" y="223.5522">PageHandler</text><line style="stroke:#181818;stroke-width:0.5;" x1="485" x2="601.3652" y1="233.9775" y2="233.9775"/><line style="stroke:#181818;stroke-width:0.5;" x1="485" x2="601.3652" y1="241.9775" y2="241.9775"/></g><!--class ApiHandler--><g class="entity" data-entity="ApiHandler" data-source-line="12" data-uid="ent0005" id="entity_ApiHandler"><rect fill="#F1F1F1" height="103.4326" rx="2.5" ry="2.5" style="stroke:#181818;stroke-width:0.5;" width="282.4502" x="620" y="174.4775"/><ellipse cx="719.1348" cy="190.4775" fill="#ADD1B2" rx="11" ry="11" style="stroke:#181818;stroke-width:1;"/><path d="M717.7129,195.8369 Q715.8535,195.8369 714.7598,194.4463 Q713.666,193.0557 713.666,190.0713 Q713.666,187.54 714.8301,185.8838 Q715.9941,184.2275 717.9785,184.2275 Q719.4473,184.2275 719.916,184.3525 Q720.3848,184.5557 720.3848,184.5557 Q720.3848,184.5557 720.3848,184.4854 Q720.3848,184.415 720.9941,183.4932 L722.041,187.1494 L720.7129,187.5557 Q720.2441,186.0088 719.5801,185.3447 Q718.916,184.6807 717.8535,184.6807 Q717.4629,184.6807 716.6973,186.2119 Q715.9316,187.7432 715.9316,189.9932 Q715.9316,192.4619 716.5957,193.8525 Q717.2598,195.2432 717.791,195.2432 Q718.8535,195.2432 719.6113,194.4775 Q720.3691,193.7119 720.7129,192.0557 L722.041,192.6494 Q721.7129,194.0557 720.8145,194.9463 Q719.916,195.8369 717.7129,195.8369 Z " fill="#000000"/><text fill="#000000" font-family="Microsoft YaHei" font-size="14" lengthAdjust="spacing" textLength="75.6807" x="739.6348" y="196.0522">ApiHandler</text><line style="stroke:#181818;stroke-width:0.5;" x1="621" x2="901.4502" y1="206.4775" y2="206.4775"/><text fill="#000000" font-family="Microsoft YaHei" font-size="14" lengthAdjust="spacing" textLength="270.4502" x="626" y="225.291">-service: DecorationManagementService</text><text fill="#000000" font-family="Microsoft YaHei" font-size="14" lengthAdjust="spacing" textLength="170.8984" x="626" y="243.7686">-authService: AuthService</text><line style="stroke:#181818;stroke-width:0.5;" x1="621" x2="901.4502" y1="251.4326" y2="251.4326"/><text fill="#000000" font-family="Microsoft YaHei" font-size="14" lengthAdjust="spacing" textLength="267.1416" x="626" y="270.2461">+handle(exchange: HttpExchange): void</text></g><!--class AuthService--><g class="entity" data-entity="AuthService" data-source-line="17" data-uid="ent0006" id="entity_AuthService"><rect fill="#F1F1F1" height="158.8652" rx="2.5" ry="2.5" style="stroke:#181818;stroke-width:0.5;" width="436.4775" x="543" y="352.9775"/><ellipse cx="717.1284" cy="368.9775" fill="#ADD1B2" rx="11" ry="11" style="stroke:#181818;stroke-width:1;"/><path d="M715.7065,374.3369 Q713.8472,374.3369 712.7534,372.9463 Q711.6597,371.5557 711.6597,368.5713 Q711.6597,366.04 712.8237,364.3838 Q713.9878,362.7275 715.9722,362.7275 Q717.4409,362.7275 717.9097,362.8525 Q718.3784,363.0557 718.3784,363.0557 Q718.3784,363.0557 718.3784,362.9854 Q718.3784,362.915 718.9878,361.9932 L720.0347,365.6494 L718.7065,366.0557 Q718.2378,364.5088 717.5737,363.8447 Q716.9097,363.1807 715.8472,363.1807 Q715.4565,363.1807 714.6909,364.7119 Q713.9253,366.2432 713.9253,368.4932 Q713.9253,370.9619 714.5894,372.3525 Q715.2534,373.7432 715.7847,373.7432 Q716.8472,373.7432 717.605,372.9775 Q718.3628,372.2119 718.7065,370.5557 L720.0347,371.1494 Q719.7065,372.5557 718.8081,373.4463 Q717.9097,374.3369 715.7065,374.3369 Z " fill="#000000"/><text fill="#000000" font-family="Microsoft YaHei" font-size="14" lengthAdjust="spacing" textLength="79.7207" x="737.6284" y="374.5522">AuthService</text><line style="stroke:#181818;stroke-width:0.5;" x1="544" x2="978.4775" y1="384.9775" y2="384.9775"/><text fill="#000000" font-family="Microsoft YaHei" font-size="14" lengthAdjust="spacing" textLength="256.833" x="549" y="403.791">-databaseManager: DatabaseManager</text><line style="stroke:#181818;stroke-width:0.5;" x1="544" x2="978.4775" y1="411.4551" y2="411.4551"/><text fill="#000000" font-family="Microsoft YaHei" font-size="14" lengthAdjust="spacing" textLength="323.6953" x="549" y="430.2686">+login(username: String, password: String): Map</text><text fill="#000000" font-family="Microsoft YaHei" font-size="14" lengthAdjust="spacing" textLength="333.2451" x="549" y="448.7461">+requireUser(exchange: HttpExchange): AuthUser</text><text fill="#000000" font-family="Microsoft YaHei" font-size="14" lengthAdjust="spacing" textLength="421.7773" x="549" y="467.2236">+requireReadPermission(user: AuthUser, resource: String): void</text><text fill="#000000" font-family="Microsoft YaHei" font-size="14" lengthAdjust="spacing" textLength="424.4775" x="549" y="485.7012">+requireWritePermission(user: AuthUser, resource: String): void</text><text fill="#000000" font-family="Microsoft YaHei" font-size="14" lengthAdjust="spacing" textLength="265.8564" x="549" y="504.1787">+logout(exchange: HttpExchange): void</text></g><!--class AuthUser--><g class="entity" data-entity="AuthUser" data-source-line="25" data-uid="ent0007" id="entity_AuthUser"><rect fill="#F1F1F1" height="152.7031" rx="2.5" ry="2.5" style="stroke:#181818;stroke-width:0.5;" width="182.6045" x="882.5" y="608.9775"/><ellipse cx="938.2847" cy="631.1353" fill="#ADD1B2" rx="11" ry="11" style="stroke:#181818;stroke-width:1;"/><path d="M936.8628,636.4946 Q935.0034,636.4946 933.9097,635.104 Q932.8159,633.7134 932.8159,630.729 Q932.8159,628.1978 933.98,626.5415 Q935.144,624.8853 937.1284,624.8853 Q938.5972,624.8853 939.0659,625.0103 Q939.5347,625.2134 939.5347,625.2134 Q939.5347,625.2134 939.5347,625.1431 Q939.5347,625.0728 940.144,624.1509 L941.1909,627.8071 L939.8628,628.2134 Q939.394,626.6665 938.73,626.0024 Q938.0659,625.3384 937.0034,625.3384 Q936.6128,625.3384 935.8472,626.8696 Q935.0815,628.4009 935.0815,630.6509 Q935.0815,633.1196 935.7456,634.5103 Q936.4097,635.9009 936.9409,635.9009 Q938.0034,635.9009 938.7612,635.1353 Q939.519,634.3696 939.8628,632.7134 L941.1909,633.3071 Q940.8628,634.7134 939.9644,635.604 Q939.0659,636.4946 936.8628,636.4946 Z " fill="#000000"/><text fill="#000000" font-family="Microsoft YaHei" font-size="12" font-style="italic" lengthAdjust="spacing" textLength="50.6309" x="964.7368" y="626.6748">&#171;record&#187;</text><text fill="#000000" font-family="Microsoft YaHei" font-size="14" lengthAdjust="spacing" textLength="62.5352" x="958.7847" y="644.6289">AuthUser</text><line style="stroke:#181818;stroke-width:0.5;" x1="883.5" x2="1064.1045" y1="653.293" y2="653.293"/><text fill="#000000" font-family="Microsoft YaHei" font-size="14" lengthAdjust="spacing" textLength="50.4014" x="888.5" y="672.1064">id: long</text><text fill="#000000" font-family="Microsoft YaHei" font-size="14" lengthAdjust="spacing" textLength="113.2852" x="888.5" y="690.584">username: String</text><text fill="#000000" font-family="Microsoft YaHei" font-size="14" lengthAdjust="spacing" textLength="134.6201" x="888.5" y="709.0615">displayName: String</text><text fill="#000000" font-family="Microsoft YaHei" font-size="14" lengthAdjust="spacing" textLength="73.377" x="888.5" y="727.5391">role: String</text><text fill="#000000" font-family="Microsoft YaHei" font-size="14" lengthAdjust="spacing" textLength="170.6045" x="888.5" y="746.0166">permissions: List&lt;String&gt;</text><line style="stroke:#181818;stroke-width:0.5;" x1="883.5" x2="1064.1045" y1="753.6807" y2="753.6807"/></g><!--class DecorationManagementService--><g class="entity" data-entity="DecorationManagementService" data-source-line="32" data-uid="ent0008" id="entity_DecorationManagementService"><rect fill="#F1F1F1" height="195.8203" rx="2.5" ry="2.5" style="stroke:#181818;stroke-width:0.5;" width="384.7637" x="139.5" y="334.4775"/><ellipse cx="222.0952" cy="350.4775" fill="#ADD1B2" rx="11" ry="11" style="stroke:#181818;stroke-width:1;"/><path d="M220.6733,355.8369 Q218.814,355.8369 217.7202,354.4463 Q216.6265,353.0557 216.6265,350.0713 Q216.6265,347.54 217.7905,345.8838 Q218.9546,344.2275 220.939,344.2275 Q222.4077,344.2275 222.8765,344.3525 Q223.3452,344.5557 223.3452,344.5557 Q223.3452,344.5557 223.3452,344.4854 Q223.3452,344.415 223.9546,343.4932 L225.0015,347.1494 L223.6733,347.5557 Q223.2046,346.0088 222.5405,345.3447 Q221.8765,344.6807 220.814,344.6807 Q220.4233,344.6807 219.6577,346.2119 Q218.8921,347.7432 218.8921,349.9932 Q218.8921,352.4619 219.5562,353.8525 Q220.2202,355.2432 220.7515,355.2432 Q221.814,355.2432 222.5718,354.4775 Q223.3296,353.7119 223.6733,352.0557 L225.0015,352.6494 Q224.6733,354.0557 223.7749,354.9463 Q222.8765,355.8369 220.6733,355.8369 Z " fill="#000000"/><text fill="#000000" font-family="Microsoft YaHei" font-size="14" lengthAdjust="spacing" textLength="211.0732" x="242.5952" y="356.0522">DecorationManagementService</text><line style="stroke:#181818;stroke-width:0.5;" x1="140.5" x2="523.2637" y1="366.4775" y2="366.4775"/><text fill="#000000" font-family="Microsoft YaHei" font-size="14" lengthAdjust="spacing" textLength="256.833" x="145.5" y="385.291">-databaseManager: DatabaseManager</text><line style="stroke:#181818;stroke-width:0.5;" x1="140.5" x2="523.2637" y1="392.9551" y2="392.9551"/><text fill="#000000" font-family="Microsoft YaHei" font-size="14" lengthAdjust="spacing" textLength="192.7188" x="145.5" y="411.7686">+dashboardSummary(): Map</text><text fill="#000000" font-family="Microsoft YaHei" font-size="14" lengthAdjust="spacing" textLength="108.3975" x="145.5" y="430.2461">+options(): Map</text><text fill="#000000" font-family="Microsoft YaHei" font-size="14" lengthAdjust="spacing" textLength="372.7637" x="145.5" y="448.7236">+listProjects(keyword: String, status: String): List&lt;Map&gt;</text><text fill="#000000" font-family="Microsoft YaHei" font-size="14" lengthAdjust="spacing" textLength="176.8525" x="145.5" y="467.2012">+getProject(id: long): Map</text><text fill="#000000" font-family="Microsoft YaHei" font-size="14" lengthAdjust="spacing" textLength="236.8242" x="145.5" y="485.6787">+createProject(payload: Map): Map</text><text fill="#000000" font-family="Microsoft YaHei" font-size="14" lengthAdjust="spacing" textLength="300.9521" x="145.5" y="504.1563">+updateProject(id: long, payload: Map): Map</text><text fill="#000000" font-family="Microsoft YaHei" font-size="14" lengthAdjust="spacing" textLength="195.0361" x="145.5" y="522.6338">+deleteProject(id: long): void</text></g><!--class DatabaseManager--><g class="entity" data-entity="DatabaseManager" data-source-line="42" data-uid="ent0009" id="entity_DatabaseManager"><rect fill="#F1F1F1" height="195.8203" rx="2.5" ry="2.5" style="stroke:#181818;stroke-width:0.5;" width="511.8848" x="352" y="587.4775"/><ellipse cx="542.4492" cy="603.4775" fill="#ADD1B2" rx="11" ry="11" style="stroke:#181818;stroke-width:1;"/><path d="M541.0273,608.8369 Q539.168,608.8369 538.0742,607.4463 Q536.9805,606.0557 536.9805,603.0713 Q536.9805,600.54 538.1445,598.8838 Q539.3086,597.2275 541.293,597.2275 Q542.7617,597.2275 543.2305,597.3525 Q543.6992,597.5557 543.6992,597.5557 Q543.6992,597.5557 543.6992,597.4854 Q543.6992,597.415 544.3086,596.4932 L545.3555,600.1494 L544.0273,600.5557 Q543.5586,599.0088 542.8945,598.3447 Q542.2305,597.6807 541.168,597.6807 Q540.7773,597.6807 540.0117,599.2119 Q539.2461,600.7432 539.2461,602.9932 Q539.2461,605.4619 539.9102,606.8525 Q540.5742,608.2432 541.1055,608.2432 Q542.168,608.2432 542.9258,607.4775 Q543.6836,606.7119 544.0273,605.0557 L545.3555,605.6494 Q545.0273,607.0557 544.1289,607.9463 Q543.2305,608.8369 541.0273,608.8369 Z " fill="#000000"/><text fill="#000000" font-family="Microsoft YaHei" font-size="14" lengthAdjust="spacing" textLength="122.4863" x="562.9492" y="609.0522">DatabaseManager</text><line style="stroke:#181818;stroke-width:0.5;" x1="353" x2="862.8848" y1="619.4775" y2="619.4775"/><text fill="#000000" font-family="Microsoft YaHei" font-size="14" lengthAdjust="spacing" textLength="101.6982" x="358" y="638.291">-jdbcUrl: String</text><line style="stroke:#181818;stroke-width:0.5;" x1="353" x2="862.8848" y1="645.9551" y2="645.9551"/><text fill="#000000" font-family="Microsoft YaHei" font-size="14" lengthAdjust="spacing" textLength="106.8867" x="358" y="664.7686">-initialize(): void</text><text fill="#000000" font-family="Microsoft YaHei" font-size="14" lengthAdjust="spacing" textLength="203.2666" x="358" y="683.2461">+getConnection(): Connection</text><text fill="#000000" font-family="Microsoft YaHei" font-size="14" lengthAdjust="spacing" textLength="461.8838" x="358" y="701.7236">+queryOne(sql: String, binder: SqlConsumer, mapper: SqlFunction): T</text><text fill="#000000" font-family="Microsoft YaHei" font-size="14" lengthAdjust="spacing" textLength="499.8848" x="358" y="720.2012">+queryList(sql: String, binder: SqlConsumer, mapper: SqlFunction): List&lt;T&gt;</text><text fill="#000000" font-family="Microsoft YaHei" font-size="14" lengthAdjust="spacing" textLength="309.1484" x="358" y="738.6787">+insert(sql: String, binder: SqlConsumer): long</text><text fill="#000000" font-family="Microsoft YaHei" font-size="14" lengthAdjust="spacing" textLength="306.5918" x="358" y="757.1563">+update(sql: String, binder: SqlConsumer): int</text><text fill="#000000" font-family="Microsoft YaHei" font-size="14" lengthAdjust="spacing" textLength="281.0254" x="358" y="775.6338">+transaction(callback: SqlConsumer): void</text></g><!--class Consumer--><g class="entity" data-entity="Consumer" data-source-line="52" data-uid="ent0010" id="entity_Consumer"><rect fill="#F1F1F1" height="66.4775" rx="2.5" ry="2.5" style="stroke:#181818;stroke-width:0.5;" width="162.9785" x="442.5" y="820.4775"/><ellipse cx="471.4192" cy="836.4775" fill="#B4A7E5" rx="11" ry="11" style="stroke:#181818;stroke-width:1;"/><path d="M468.013,830.7588 L468.013,830.3525 L474.3255,830.3525 L474.3255,830.7588 L471.7942,830.7588 Q471.7942,830.7588 471.9427,830.8916 Q472.0911,831.0244 472.0911,831.29 L472.0911,840.7744 Q472.0911,841.04 472.3099,841.1729 Q472.5286,841.3057 472.5286,841.3057 L474.3255,841.3057 L474.3255,841.7119 L468.013,841.7119 L468.013,841.3057 L469.5442,841.3057 Q469.8724,841.3057 470.0052,841.1729 Q470.138,841.04 470.138,840.7744 L470.138,831.29 Q470.138,831.0244 470.0052,830.8916 Q469.8724,830.7588 469.5442,830.7588 L468.013,830.7588 Z " fill="#000000"/><text fill="#000000" font-family="Microsoft YaHei" font-size="14" font-style="italic" lengthAdjust="spacing" textLength="89.168" x="488.5124" y="842.0522">SqlConsumer</text><rect fill="#FFFFFF" height="17.8379" style="stroke:#181818;stroke-width:1;stroke-dasharray:2.0,2.0;" width="8.8789" x="599.5996" y="817.4775"/><text fill="#000000" font-family="Microsoft YaHei" font-size="12" font-style="italic" lengthAdjust="spacing" textLength="6.8789" x="600.5996" y="831.1748">T</text><line style="stroke:#181818;stroke-width:0.5;" x1="443.5" x2="604.4785" y1="852.4775" y2="852.4775"/><line style="stroke:#181818;stroke-width:0.5;" x1="443.5" x2="604.4785" y1="860.4775" y2="860.4775"/><text fill="#000000" font-family="Microsoft YaHei" font-size="14" lengthAdjust="spacing" textLength="150.9785" x="448.5" y="879.291">+accept(value: T): void</text></g><!--class Function--><g class="entity" data-entity="Function" data-source-line="55" data-uid="ent0011" id="entity_Function"><rect fill="#F1F1F1" height="66.4775" rx="2.5" ry="2.5" style="stroke:#181818;stroke-width:0.5;" width="136.0938" x="624" y="820.4775"/><ellipse cx="639" cy="836.4775" fill="#B4A7E5" rx="11" ry="11" style="stroke:#181818;stroke-width:1;"/><path d="M635.5938,830.7588 L635.5938,830.3525 L641.9063,830.3525 L641.9063,830.7588 L639.375,830.7588 Q639.375,830.7588 639.5234,830.8916 Q639.6719,831.0244 639.6719,831.29 L639.6719,840.7744 Q639.6719,841.04 639.8906,841.1729 Q640.1094,841.3057 640.1094,841.3057 L641.9063,841.3057 L641.9063,841.7119 L635.5938,841.7119 L635.5938,841.3057 L637.125,841.3057 Q637.4531,841.3057 637.5859,841.1729 Q637.7188,841.04 637.7188,840.7744 L637.7188,831.29 Q637.7188,831.0244 637.5859,830.8916 Q637.4531,830.7588 637.125,830.7588 L635.5938,830.7588 Z " fill="#000000"/><text fill="#000000" font-family="Microsoft YaHei" font-size="14" font-style="italic" lengthAdjust="spacing" textLength="78.9414" x="653" y="842.0522">SqlFunction</text><rect fill="#FFFFFF" height="17.8379" style="stroke:#181818;stroke-width:1;stroke-dasharray:2.0,2.0;" width="23.1523" x="739.9414" y="817.4775"/><text fill="#000000" font-family="Microsoft YaHei" font-size="12" font-style="italic" lengthAdjust="spacing" textLength="21.1523" x="740.9414" y="831.1748">T, R</text><line style="stroke:#181818;stroke-width:0.5;" x1="625" x2="759.0938" y1="852.4775" y2="852.4775"/><line style="stroke:#181818;stroke-width:0.5;" x1="625" x2="759.0938" y1="860.4775" y2="860.4775"/><text fill="#000000" font-family="Microsoft YaHei" font-size="14" lengthAdjust="spacing" textLength="124.0654" x="630" y="879.291">+apply(value: T): R</text></g><g class="entity" data-entity="GMN24" data-source-line="71" data-uid="ent0025" id="entity_GMN24"><path d="M6,663.4775 L6,707.793 A0,0 0 0 0 6,707.793 L334.3599,707.793 A0,0 0 0 0 334.3599,707.793 L334.3599,673.4775 L324.3599,663.4775 L187.8645,663.4775 L269.3666,530.5207 L179.8645,663.4775 L6,663.4775 A0,0 0 0 0 6,663.4775" fill="#FEFFDD" style="stroke:#181818;stroke-width:0.5;"/><path d="M324.3599,663.4775 L324.3599,673.4775 L334.3599,673.4775 L324.3599,663.4775" fill="#FEFFDD" style="stroke:#181818;stroke-width:0.5;"/><text fill="#000000" font-family="Microsoft YaHei" font-size="13" lengthAdjust="spacing" textLength="260.5967" x="12" y="682.2329">&#23454;&#38469;&#20351;&#29992; Map / List&lt;Map&gt; &#20256;&#36882;&#19994;&#21153;&#25968;&#25454;&#12290;</text><text fill="#000000" font-family="Microsoft YaHei" font-size="13" lengthAdjust="spacing" textLength="307.3599" x="12" y="699.3906">domain &#21253;&#20013;&#30340;&#20845;&#20010; record &#24403;&#21069;&#26410;&#25509;&#20837;&#19994;&#21153;&#35843;&#29992;&#38142;&#12290;</text></g><g class="link" data-entity-1="HttpHandler" data-entity-2="ApiHandler" data-uid="lnk12" id="link_HttpHandler_ApiHandler"><polygon fill="none" points="578.5094,117.6627,588.2929,133.9195,596.0903,124.7981,578.5094,117.6627" style="stroke:#181818;stroke-width:1;"/><path d="M592.1916,129.3588 C607.2112,142.1981 611.5601,144.9411 629,156.4775 C638.2595,162.6026 648.1325,168.6027 658.1518,174.347" fill="none" style="stroke:#181818;stroke-width:1;stroke-dasharray:7.0,7.0;"/></g><g class="link" data-entity-1="HttpHandler" data-entity-2="PageHandler" data-uid="lnk13" id="link_HttpHandler_PageHandler"><polygon fill="none" points="543,117.4817,537,135.4817,549,135.4817,543,117.4817" style="stroke:#181818;stroke-width:1;"/><path d="M543,135.4817 C543,161.2224 543,178.7778 543,201.8245" fill="none" style="stroke:#181818;stroke-width:1;stroke-dasharray:7.0,7.0;"/></g><g class="link" data-entity-1="Main" data-entity-2="ApiHandler" data-uid="lnk14" id="link_Main_ApiHandler"><polygon fill="#181818" points="772.9982,174.258,778.9626,166.4206,774.1492,169.3923,771.1775,164.5789,772.9982,174.258" style="stroke:#181818;stroke-width:1;"/><path d="M786.4291,117.4817 C782.4521,134.2936 778.8659,149.4533 774.3794,168.4192" fill="none" style="stroke:#181818;stroke-width:1;stroke-dasharray:7.0,7.0;"/><text fill="#000000" font-family="Microsoft YaHei" font-size="13" lengthAdjust="spacing" textLength="65" x="784" y="151.2329">&#21019;&#24314;&#24182;&#27880;&#20876;</text></g><g class="link" data-entity-1="Main" data-entity-2="PageHandler" data-uid="lnk15" id="link_Main_PageHandler"><polygon fill="#181818" points="571.6241,201.869,581.2022,199.5754,575.5946,198.8301,576.3399,193.2226,571.6241,201.869" style="stroke:#181818;stroke-width:1;"/><path d="M720.213,117.5423 C686.1831,133.2885 645.7272,153.3902 611,174.4775 C597.551,182.6442 588.2296,189.1596 576.3887,198.2223" fill="none" style="stroke:#181818;stroke-width:1;stroke-dasharray:7.0,7.0;"/><text fill="#000000" font-family="Microsoft YaHei" font-size="13" lengthAdjust="spacing" textLength="65" x="682" y="151.2329">&#21019;&#24314;&#24182;&#27880;&#20876;</text></g><g class="link" data-entity-1="Main" data-entity-2="DatabaseManager" data-uid="lnk16" id="link_Main_DatabaseManager"><polygon fill="#181818" points="864.0769,590.5522,873.861,591.6795,868.8484,589.0578,871.4701,584.0452,864.0769,590.5522" style="stroke:#181818;stroke-width:1;"/><path d="M846.8462,117.6677 C868.7124,132.8833 893.0878,152.5305 911,174.4775 C1013.3568,299.891 1052.7067,382.0913 988,530.4775 C977.8179,553.8273 968.3954,557.3393 946,569.4775 C917.0007,585.1951 905.5376,577.8141 874,587.4775 C870.7101,588.4856 873.127,587.7178 869.8027,588.7589" fill="none" style="stroke:#181818;stroke-width:1;stroke-dasharray:7.0,7.0;"/><text fill="#000000" font-family="Microsoft YaHei" font-size="13" lengthAdjust="spacing" textLength="26" x="1004" y="311.2329">&#21019;&#24314;</text></g><g class="link" data-entity-1="ApiHandler" data-entity-2="AuthService" data-uid="lnk17" id="link_ApiHandler_AuthService"><polygon fill="#181818" points="761,352.8512,765,343.8512,761,347.8512,757,343.8512,761,352.8512" style="stroke:#181818;stroke-width:1;"/><path d="M761,277.5281 C761,300.2375 761,321.564 761,346.8512" fill="none" style="stroke:#181818;stroke-width:1;"/></g><g class="link" data-entity-1="ApiHandler" data-entity-2="DecorationManagementService" data-uid="lnk18" id="link_ApiHandler_DecorationManagementService"><polygon fill="#181818" points="524.7099,338.9101,534.5551,338.6427,529.2221,336.7561,531.1087,331.4231,524.7099,338.9101" style="stroke:#181818;stroke-width:1;"/><path d="M653.8406,277.5794 C615.958,295.5065 573.064,315.8488 534,334.4775 C530.9275,335.9428 533.2437,334.8364 530.1246,336.3253" fill="none" style="stroke:#181818;stroke-width:1;"/></g><g class="link" data-entity-1="AuthService" data-entity-2="DatabaseManager" data-uid="lnk19" id="link_AuthService_DatabaseManager"><polygon fill="#181818" points="667.3959,587.0372,675.4957,581.4343,669.9983,582.7679,668.6648,577.2705,667.3959,587.0372" style="stroke:#181818;stroke-width:1;"/><path d="M713.0096,512.2068 C698.5496,535.9288 685.6267,557.1292 670.5188,581.914" fill="none" style="stroke:#181818;stroke-width:1;"/></g><g class="link" data-entity-1="AuthService" data-entity-2="AuthUser" data-uid="lnk20" id="link_AuthService_AuthUser"><polygon fill="#181818" points="909.6121,608.6026,906.8387,599.1523,906.377,604.7903,900.739,604.3286,909.6121,608.6026" style="stroke:#181818;stroke-width:1;"/><path d="M827.8101,512.2068 C853.9189,542.9735 879.8593,573.5418 905.7299,604.0278" fill="none" style="stroke:#181818;stroke-width:1;stroke-dasharray:7.0,7.0;"/><text fill="#000000" font-family="Microsoft YaHei" font-size="13" lengthAdjust="spacing" textLength="65.2476" x="875" y="564.2329">&#21019;&#24314; / &#36820;&#22238;</text></g><g class="link" data-entity-1="DecorationManagementService" data-entity-2="DatabaseManager" data-uid="lnk21" id="link_DecorationManagementService_DatabaseManager"><polygon fill="#181818" points="501.1199,587.2786,497.1528,578.2641,497.4208,583.9146,491.7703,584.1827,501.1199,587.2786" style="stroke:#181818;stroke-width:1;"/><path d="M438.7088,530.5207 C459.1872,549.1442 476.1972,564.6134 496.681,583.2418" fill="none" style="stroke:#181818;stroke-width:1;"/></g><g class="link" data-entity-1="DatabaseManager" data-entity-2="Consumer" data-uid="lnk22" id="link_DatabaseManager_Consumer"><polygon fill="#181818" points="540.3027,820.2604,547.9353,814.036,542.5602,815.7991,540.7972,810.424,540.3027,820.2604" style="stroke:#181818;stroke-width:1;"/><path d="M558.8938,783.5207 C552.2159,796.7175 548.4939,804.0728 543.0117,814.9068" fill="none" style="stroke:#181818;stroke-width:1;stroke-dasharray:7.0,7.0;"/></g><g class="link" data-entity-1="DatabaseManager" data-entity-2="Function" data-uid="lnk23" id="link_DatabaseManager_Function"><polygon fill="#181818" points="675.6973,820.2604,675.2028,810.424,673.4398,815.7991,668.0647,814.036,675.6973,820.2604" style="stroke:#181818;stroke-width:1;"/><path d="M657.1062,783.5207 C663.7841,796.7175 667.5061,804.0728 672.9883,814.9068" fill="none" style="stroke:#181818;stroke-width:1;stroke-dasharray:7.0,7.0;"/></g><!--SRC=[dLRDRXH74BxFKtGuBOhjv6ojLhBuaIF5nFBQGb6KG-rCUTsuftlStUDaGv18Y1E8C8U0aS08WHHB20da22aomU27oSukFl4AgPxPsMalPWFSfgk- -kgtg-UJH4Cx1YQWerBBJ8mM90HcbSi4DCGimcL8XJshf3q7CR8v7cfbrB9bNyCiSWyP2Z1cnbhDMwd5Bq8bc_m7P9y7bbk1hFTWBpkuaZsztx-ns__hHRRzwit-rVwzd_fREuU_RMP_Rh9J2qkdMU_syzwphJVxrm8kBUfb297DMflCWem4QdOnOEpJbVnGm-z3-chZT8uuCpYTd6RhYaV1fI2FYCq1buNPHMF1yl0IYqbK0zqsqwn9yShsDz-EMir36mS-1vAPXFj1J1hKwpmavwSnL9g8bPoZshKnHccRXTBX8BKhpH8xKnq-E17FjeWW0WijC5YurHJ9KO7p85IRSaqfM4djA_ETO0anVgTqL4h8sHmapaBZMierBf79kmDpiJY4Px204CsZZhanL8hSPOMRO1gDIdM8diCykuhWlEOMFuw1igJn_O0wEaPMhslNkgZHoEl9gHX2oJPzZjQBH14t2TsISqUbMWd_c0oZfz7waXjRBrIDeVCnm_B-JOt0hBGKwAYPnZ7eJgtgdaeSj_4aWiAOr-e2XjRKLh7ZTts2kIkH6g-aUTHasd2sRInDQsLrAk9G8r331le4Ea91b6ihJ9f47gRaSEDt73f2WM-ZH_itKf2YR1UYLhYaXTUBIIwvvI1e2TMyKQ6KJYafoO6RCL9K9wTUIr5tlf9OCskYgbABoyZrehac26xIsCrZ34ao49vDPSv0T8j35bV9ZwR9sx2ODu5BciR_PpevdDv1rT_7WfQiCx0Qf86Y9248qO9mTHGww46rbazuUWhr10F3odEnS24CCR6rTH0ftPB5Tv6KQTSN9zX2mLEA1Zn98Ze-pG9n-Az2_SUfAMz1lwtprtd-84nDDVoDFisogzlPYt-ovt_tdZtAVhrUeJpJSR3HgIoXWUTbSh9nv0KOKOrxIFpbdsD7jeAlptChbrmP1_kClJwubMtV3yQjeEEeHpDpz6MVZrMMpGkaiiXQobeLCxKyDZ_wCJYyiz5zUT2_zSYj0mftk8bOT__1uUK_kdjtizyVzhPsUvjF_xtySn0fzuwpxFf6T-z9_-ulsSQJxjvZLknqbhsycLtRxDrxtBknasti5CQlTwyG_-7DLyuUPSHSXFy1]--></g></svg>