<svg xmlns="http://www.w3.org/2000/svg" xmlns:xlink="http://www.w3.org/1999/xlink" contentStyleType="text/css" data-diagram-type="STATE" height="727px" preserveAspectRatio="none" style="width:495px;height:727px;background:#FFFFFF;" version="1.1" viewBox="0 0 495 727" width="495px" zoomAndPan="magnify"><title>&#39033;&#30446;&#29366;&#24577;&#22270;&#65288;&#24314;&#35758;&#19994;&#21153;&#29983;&#21629;&#21608;&#26399;&#65292;&#38750;&#24050;&#23454;&#29616;&#36716;&#25442;&#32422;&#26463;&#65289;</title><defs/><g><text fill="#000000" font-family="Microsoft YaHei" font-size="14" font-weight="bold" lengthAdjust="spacing" textLength="336" x="72.535" y="24.8135">&#39033;&#30446;&#29366;&#24577;&#22270;&#65288;&#24314;&#35758;&#19994;&#21153;&#29983;&#21629;&#21608;&#26399;&#65292;&#38750;&#24050;&#23454;&#29616;&#36716;&#25442;&#32422;&#26463;&#65289;</text><g id="Pending"><rect fill="#F1F1F1" height="50" rx="12.5" ry="12.5" style="stroke:#181818;stroke-width:0.5;" width="62" x="154.57" y="144.4775"/><line style="stroke:#181818;stroke-width:0.5;" x1="154.57" x2="216.57" y1="172.9551" y2="172.9551"/><text fill="#000000" font-family="Microsoft YaHei" font-size="14" lengthAdjust="spacing" textLength="42" x="164.57" y="164.291">&#24453;&#31614;&#32422;</text></g><g id="Design"><rect fill="#F1F1F1" height="50" rx="12.5" ry="12.5" style="stroke:#181818;stroke-width:0.5;" width="62" x="154.57" y="273.4775"/><line style="stroke:#181818;stroke-width:0.5;" x1="154.57" x2="216.57" y1="301.9551" y2="301.9551"/><text fill="#000000" font-family="Microsoft YaHei" font-size="14" lengthAdjust="spacing" textLength="42" x="164.57" y="293.291">&#35774;&#35745;&#20013;</text></g><g id="Build"><rect fill="#F1F1F1" height="50" rx="12.5" ry="12.5" style="stroke:#181818;stroke-width:0.5;" width="62" x="154.57" y="402.4775"/><line style="stroke:#181818;stroke-width:0.5;" x1="154.57" x2="216.57" y1="430.9551" y2="430.9551"/><text fill="#000000" font-family="Microsoft YaHei" font-size="14" lengthAdjust="spacing" textLength="42" x="164.57" y="422.291">&#26045;&#24037;&#20013;</text></g><g id="Complete"><rect fill="#F1F1F1" height="50" rx="12.5" ry="12.5" style="stroke:#181818;stroke-width:0.5;" width="62" x="31.57" y="536.9775"/><line style="stroke:#181818;stroke-width:0.5;" x1="31.57" x2="93.57" y1="565.4551" y2="565.4551"/><text fill="#000000" font-family="Microsoft YaHei" font-size="14" lengthAdjust="spacing" textLength="42" x="41.57" y="556.791">&#24050;&#23436;&#24037;</text></g><g id="Aftercare"><rect fill="#F1F1F1" height="50" rx="12.5" ry="12.5" style="stroke:#181818;stroke-width:0.5;" width="62" x="31.57" y="671.4775"/><line style="stroke:#181818;stroke-width:0.5;" x1="31.57" x2="93.57" y1="699.9551" y2="699.9551"/><text fill="#000000" font-family="Microsoft YaHei" font-size="14" lengthAdjust="spacing" textLength="42" x="41.57" y="691.291">&#21806;&#21518;&#20013;</text></g><ellipse cx="185.57" cy="55.4775" fill="#222222" rx="10" ry="10" style="stroke:#222222;stroke-width:1;"/><g class="entity" data-entity="GMN2" data-source-line="15" data-uid="ent0003" id="entity_GMN2"><path d="M129.07,531.4775 L129.07,592.9507 A0,0 0 0 0 129.07,592.9507 L488.07,592.9507 A0,0 0 0 0 488.07,592.9507 L488.07,541.4775 L478.07,531.4775 L284.99,531.4775 L208.13,452.7775 L276.99,531.4775 L129.07,531.4775 A0,0 0 0 0 129.07,531.4775" fill="#FEFFDD" style="stroke:#181818;stroke-width:0.5;"/><path d="M478.07,531.4775 L478.07,541.4775 L488.07,541.4775 L478.07,531.4775" fill="#FEFFDD" style="stroke:#181818;stroke-width:0.5;"/><text fill="#000000" font-family="Microsoft YaHei" font-size="13" lengthAdjust="spacing" textLength="275.3613" x="135.07" y="550.2329">&#20116;&#20010;&#29366;&#24577;&#21517;&#31216;&#26469;&#33258; options().projectStatuses&#12290;</text><text fill="#000000" font-family="Microsoft YaHei" font-size="13" lengthAdjust="spacing" textLength="286" x="135.07" y="567.3906">&#19978;&#36848;&#36716;&#25442;&#20026;&#35838;&#31243;&#20998;&#26512;&#24314;&#35758;&#65292;&#20195;&#30721;&#26410;&#26657;&#39564;&#36716;&#25442;&#39034;&#24207;&#65292;</text><text fill="#000000" font-family="Microsoft YaHei" font-size="13" lengthAdjust="spacing" textLength="338" x="135.07" y="584.5483">&#20063;&#26410;&#38480;&#21046;&#21482;&#33021;&#20351;&#29992;&#36825;&#20116;&#20010;&#20540;&#65307;&#21019;&#24314;&#40664;&#35748;&#29366;&#24577;&#20026;&#8220;&#26045;&#24037;&#20013;&#8221;&#12290;</text></g><!--link *start* to Pending--><g class="link" data-entity-1="*start*" data-entity-2="Pending" data-source-line="8" data-uid="lnk3" id="link_*start*_Pending"><path d="M185.57,65.6475 C185.57,82.6775 185.57,113.7075 185.57,138.3675" fill="none" id="*start*-to-Pending" style="stroke:#181818;stroke-width:1;"/><polygon fill="#181818" points="185.57,144.3675,189.57,135.3675,185.57,139.3675,181.57,135.3675,185.57,144.3675" style="stroke:#181818;stroke-width:1;"/><text fill="#000000" font-family="Microsoft YaHei" font-size="13" lengthAdjust="spacing" textLength="52" x="186.57" y="110.2329">&#24314;&#35758;&#36215;&#28857;</text></g><!--link Pending to Design--><g class="link" data-entity-1="Pending" data-entity-2="Design" data-source-line="9" data-uid="lnk4" id="link_Pending_Design"><path d="M185.57,194.6675 C185.57,217.2575 185.57,244.8075 185.57,267.3775" fill="none" id="Pending-to-Design" style="stroke:#181818;stroke-width:1;"/><polygon fill="#181818" points="185.57,273.3775,189.57,264.3775,185.57,268.3775,181.57,264.3775,185.57,273.3775" style="stroke:#181818;stroke-width:1;"/><text fill="#000000" font-family="Microsoft YaHei" font-size="13" lengthAdjust="spacing" textLength="91" x="186.57" y="239.2329">&#31614;&#32422;&#24182;&#36827;&#20837;&#35774;&#35745;</text></g><!--link Design to Build--><g class="link" data-entity-1="Design" data-entity-2="Build" data-source-line="10" data-uid="lnk5" id="link_Design_Build"><path d="M185.57,323.6675 C185.57,346.2575 185.57,373.8075 185.57,396.3775" fill="none" id="Design-to-Build" style="stroke:#181818;stroke-width:1;"/><polygon fill="#181818" points="185.57,402.3775,189.57,393.3775,185.57,397.3775,181.57,393.3775,185.57,402.3775" style="stroke:#181818;stroke-width:1;"/><text fill="#000000" font-family="Microsoft YaHei" font-size="13" lengthAdjust="spacing" textLength="91" x="186.57" y="368.2329">&#35774;&#35745;&#30830;&#35748;&#24182;&#24320;&#24037;</text></g><!--link Build to Complete--><g class="link" data-entity-1="Build" data-entity-2="Complete" data-source-line="11" data-uid="lnk6" id="link_Build_Complete"><path d="M163.01,452.7775 C140.82,476.6875 111.2121,508.5802 89.0721,532.4302" fill="none" id="Build-to-Complete" style="stroke:#181818;stroke-width:1;"/><polygon fill="#181818" points="84.99,536.8275,94.0447,532.9529,88.3917,533.1631,88.1815,527.5101,84.99,536.8275" style="stroke:#181818;stroke-width:1;"/><text fill="#000000" font-family="Microsoft YaHei" font-size="13" lengthAdjust="spacing" textLength="52" x="136.57" y="497.2329">&#31459;&#24037;&#39564;&#25910;</text></g><!--link Complete to Aftercare--><g class="link" data-entity-1="Complete" data-entity-2="Aftercare" data-source-line="12" data-uid="lnk7" id="link_Complete_Aftercare"><path d="M35.7,587.0475 C26.53,596.9975 17.37,609.2975 12.57,622.4775 C6,640.5175 13.4787,654.1439 27.2487,667.6639" fill="none" id="Complete-to-Aftercare" style="stroke:#181818;stroke-width:1;"/><polygon fill="#181818" points="31.53,671.8675,27.9104,662.7079,27.9622,668.3645,22.3056,668.4164,31.53,671.8675" style="stroke:#181818;stroke-width:1;"/><text fill="#000000" font-family="Microsoft YaHei" font-size="13" lengthAdjust="spacing" textLength="52" x="13.57" y="637.2329">&#21457;&#36215;&#21806;&#21518;</text></g><!--link Aftercare to Complete--><g class="link" data-entity-1="Aftercare" data-entity-2="Complete" data-source-line="13" data-uid="lnk8" id="link_Aftercare_Complete"><path d="M66.92,671.3675 C68.39,662.0575 69.85,651.3075 70.57,641.4775 C71.92,623.1675 70.5956,608.4441 68.1456,592.9241" fill="none" id="Aftercare-to-Complete" style="stroke:#181818;stroke-width:1;"/><polygon fill="#181818" points="67.21,586.9975,64.6623,596.5112,67.9896,591.9364,72.5644,595.2637,67.21,586.9975" style="stroke:#181818;stroke-width:1;"/><text fill="#000000" font-family="Microsoft YaHei" font-size="13" lengthAdjust="spacing" textLength="78" x="72.57" y="637.2329">&#21806;&#21518;&#22788;&#29702;&#32467;&#26463;</text></g><!--SRC=[NPBBRjD058RtynIZhW2fF00B92v2R418h11YOP99PKWyaJtPkuMM4D8c4H5gSIurRI0or5H898wJEEzIF1UlyWgCCt6GsCxtpvdld3FMQzqeQwPMWdbKq2f5yW0RvB5MGl2HdZEnXGi4FjCU8XqGdHGHJDm9TtnU6p5xbphHSbQbqr3uVXnyfZMNj_kqDQUj8UlqbxDwqktHyI_gz_ZHfPZ_O8TVUFYLTILw3ooY4GItQBJFBo9vl0Kr2pv1HbutTZ8e_4ZuRXnShE1zPEaxHiROfpaT3p9sjw8NyvkQwPjrILVe7YwLYuYW3Mtxj7cKNRnJ8CZCQIO2ps-yWDlRjpC7U0kgpiJlCT-RWEmuZIWJcL3gT38I2uVk3vGlMECqkVAIGKMuwml_NCRfp9PwGD4qbqccDR-VIPPuTTOUWSrv6jgufcwDbXHJlO1_uBzQYjFpjxnvmASVvUY1WILvYGd19OWBwy75OJiElFLMcuVysoNh3iGx3-8oqR5XNRj-ispYLoX7dieXLYna_R7tG1pKn6Azs3W8nS-83p_GwW7hDTNev1U8fsVyT9TrF7RgofvKE7536ZOa1V6aBrboqgJL4MruuiqydYzuUoWM9yg9shFbpA5LHrPCfiToVCfIldTbTpQVuChkfaPoHp1jy2y0]--></g></svg>